<?xml version="1.0" standalone="no"?><!DOCTYPE svg PUBLIC "-//W3C//DTD SVG 1.1//EN" "http://www.w3.org/Graphics/SVG/1.1/DTD/svg11.dtd"><svg t="1488901635947" class="icon" style="" viewBox="0 0 1024 1024" version="1.1" xmlns="http://www.w3.org/2000/svg" p-id="4907" xmlns:xlink="http://www.w3.org/1999/xlink" width="400" height="400"><defs><style type="text/css"></style></defs><path d="M947.712 476.224c0 0-8.192-45.248 25.344-52.48 11.648-2.496-11.712-38.784-11.712-38.784l-37.056-21.376-89.536 112.704-116.352 0c-4.8-31.616-16.832-60.672-33.984-86.016l81.216-81.216 143.04 16.384 11.072-41.344c0 0-9.152-42.176-19.136-35.776-28.864 18.624-55.04-19.136-55.04-19.136l54.016-54.016-19.968-20.032-13.824-13.76-16.768-16.768L794.88 178.624c0 0-37.76-26.24-19.2-55.04 6.4-9.92-35.712-19.136-35.712-19.136l-41.344 11.072L714.88 258.56l-80 80C609.536 320 580.032 306.688 547.776 300.928L547.776 189.44l112.704-89.6L639.04 62.656c0 0-36.224-23.296-38.72-11.776C593.088 84.48 547.776 76.416 547.776 76.416L547.776 0 519.488 0 500.032 0l-23.68 0 0 76.416c0 0-45.248 8.064-52.48-25.472C421.376 39.36 385.088 62.656 385.088 62.656L363.584 99.84l112.704 89.6 0 111.168C443.648 305.92 413.632 318.848 387.904 337.344l-78.72-78.72 16.32-143.104L284.096 104.384c0 0-42.176 9.216-35.776 19.136 18.624 28.8-19.136 55.04-19.136 55.04L175.232 124.608 158.464 141.376 144.768 155.136 124.736 175.104l54.016 54.016c0 0-26.24 37.696-55.104 19.136-9.92-6.4-19.072 35.776-19.072 35.776l11.072 41.344 143.104-16.384 79.04 79.168c-17.92 25.728-30.464 55.616-35.392 88.064L189.376 476.224l-89.6-112.704-37.12 21.376c0 0-23.296 36.288-11.712 38.784 33.472 7.232 25.344 52.48 25.344 52.48L0 476.16l0 23.68 0 19.52 0 28.224 76.352 0c0 0 8.128 45.312-25.344 52.544C39.36 602.624 62.656 638.912 62.656 638.912l37.12 21.44 89.6-112.768L303.36 547.584c6.016 31.424 19.2 60.224 37.568 84.992l-82.176 82.048-143.104-16.32-11.008 41.472c0 0 9.152 42.048 19.136 35.776 28.8-18.624 55.104 19.136 55.104 19.136L124.8 848.704l16.768 16.704 13.824 13.888 19.968 19.904 54.016-53.888c0 0 37.696 26.24 19.136 54.912-6.464 10.048 35.776 19.2 35.776 19.2l41.344-11.072-16.384-142.976 83.456-83.52c24.704 16.64 52.992 28.48 83.648 33.472l0 119.232-112.704 89.664 21.44 36.992c0 0 36.288 23.296 38.784 11.776 7.232-33.408 52.48-25.344 52.48-25.344L476.352 1024l23.68 0 19.52 0 28.288 0 0-76.352c0 0 45.312-8.064 52.544 25.344 2.496 11.584 38.72-11.776 38.72-11.776l21.44-36.992L547.776 834.56l0-119.552c30.272-5.44 58.112-17.6 82.432-34.432l84.672 84.736-16.256 142.976 41.344 11.072c0 0 42.112-9.152 35.776-19.2-18.624-28.672 19.136-54.912 19.136-54.912l54.016 53.888 20.032-19.904 13.696-13.888 16.832-16.704-53.952-53.952c0 0 26.176-37.76 55.04-19.136 9.984 6.336 19.136-35.776 19.136-35.776l-11.136-41.472-142.976 16.32-84.16-84.032c17.472-24.384 30.208-52.352 36.032-83.008l117.376 0 89.536 112.768 37.056-21.44c0 0 23.296-36.288 11.712-38.72-33.472-7.232-25.344-52.544-25.344-52.544L1024 547.648 1024 519.424 1024 499.904l0-23.68L947.712 476.224zM512.64 647.68c-76.032 0-137.472-61.568-137.472-137.472s61.44-137.408 137.472-137.408c75.904 0 137.536 61.504 137.536 137.408S588.544 647.68 512.64 647.68z" p-id="4908" fill="#515151"></path></svg>