<?xml version="1.0" standalone="no"?><!DOCTYPE svg PUBLIC "-//W3C//DTD SVG 1.1//EN" "http://www.w3.org/Graphics/SVG/1.1/DTD/svg11.dtd"><svg t="1489148291173" class="icon" style="" viewBox="0 0 1024 1024" version="1.1" xmlns="http://www.w3.org/2000/svg" p-id="2074" xmlns:xlink="http://www.w3.org/1999/xlink" width="200" height="200"><defs><style type="text/css"></style></defs><path d="M848.896 293.632c-42.304-71.744-119.424-116.096-202.944-116.096-76.736 0-145.472 36.416-188.672 94.144-16.512-2.944-33.28-4.992-50.432-4.992-138.304 0-255.68 96-283.712 229.952C51.648 520.32 0 587.648 0 666.88c0 99.008 80.576 179.584 179.584 179.584 35.776 0 69.696-10.304 99.136-29.824 39.68 19.52 83.584 29.824 128.064 29.824 46.208 0 91.84-11.2 132.608-32.256 34.24 21.056 73.152 32.256 114.048 32.256 114.112 0 207.936-87.936 217.6-199.616C957.312 634.816 1024 560.704 1024 471.168 1024 374.08 945.664 294.976 848.896 293.632zM810.496 644.736c-8.384 79.232-75.584 141.184-157.056 141.184-35.264 0-68.672-11.392-96.448-32.896-13.248-10.24-32.256-7.808-42.496 5.44-0.192 0.256-0.32 0.512-0.512 0.768-32.832 17.408-69.76 26.624-107.2 26.624-39.744 0-78.848-10.304-113.152-29.824-8.64-4.928-18.624-4.992-27.072-1.344-4.864 0.832-9.6 2.688-13.696 5.888-21.12 16.512-46.4 25.216-73.28 25.216-65.6 0-118.976-53.376-118.976-119.04 0-65.6 53.376-118.976 118.976-118.976 33.088 0 64.96 13.952 87.424 38.272C278.4 598.464 297.536 599.232 309.824 587.904c12.288-11.328 13.056-30.528 1.728-42.816C279.616 510.464 235.008 489.792 188.16 487.552c29.504-94.528 116.8-160.32 218.624-160.32 6.464 0 12.864 0.576 19.264 1.152 17.088 1.472 33.728 4.8 49.792 9.92 45.312 14.336 85.568 42.24 114.496 80.704-5.44 1.664-10.688 3.648-16 5.696C562.048 429.376 550.336 435.264 539.136 442.112c-9.536 5.824-18.816 12.16-27.456 19.52-12.736 10.88-14.208 29.952-3.392 42.688C519.168 517.12 538.24 518.592 550.976 507.712c28.544-24.32 64.896-37.76 102.464-37.76 75.2 0 138.176 52.864 154.048 123.392 2.496 11.136 3.904 22.72 3.904 34.56C811.392 633.6 811.072 639.232 810.496 644.736z" p-id="2075" fill="#707070"></path></svg>